# xmcd
#
# Track frame offsets: 
#        150
#        10834
#        22374
#        31763
#        44075
#        53484
#        64284
#        75716
#        82885
#        91714
#
# Disc length: 1379 seconds
#
# Revision: 0
# Processed by: cddbd v1.5.2PL0 Copyright (c) Steve Scherf et al.
# Submitted via: ExactAudioCopy v0.95b4
#
DISCID=7205610a
DTITLE=Jean Shepard - Just Like Walkin' In The Sunshine
DYEAR=1972
DGENRE=Country
TTITLE0=Just Like Walkin' In The Sunshine
TTITLE1=I've Loved Him Much Longer Than You
TTITLE2=We Go Good Together
TTITLE3=Virginia
TTITLE4=Lonesome End Of The Line
TTITLE5=Love Will Always Be There
TTITLE6=Candlelight World
TTITLE7=Safe In These Lovin' Arms Of Mine
TTITLE8=Singing The Blues
TTITLE9=Thank Goodness It's Forever
EXTD=
EXTT0=
EXTT1=
EXTT2=
EXTT3=
EXTT4=
EXTT5=
EXTT6=
EXTT7=
EXTT8=
EXTT9=
PLAYORDER=
